Error generating video: Failed to embed subtitles: ffmpeg version 6.1.1 Copyright (c) 2000-2023 the FFmpeg developers built with gcc 13.2.0 (GCC) configuration: --disable-static --prefix=/nix/store/eeeeeeeeeeeeeeeeeeeeeeeeeeeeeeee-ffmpeg-6.1.1 --target_os=linux --arch=x86_64 --pkg-config=pkg-config --enable-gpl --enable-version3 --disable-nonfree --disable-static --enable-shared --enable-pic --disable-thumb --disable-small --enable-runtime-cpudetect --disable-gray --enable-swscale-alpha --enable-hardcoded-tables --enable-safe-bitstream-reader --enable-pthreads --disable-w32threads --disable-os2threads --enable-network --enable-pixelutils --datadir=/nix/store/71hcrwn1g6ncki859v14jq18i8fx84sk-ffmpeg-6.1.1-data/share/ffmpeg --enable-ffmpeg --enable-ffplay --enable-ffprobe --bindir=/nix/store/eeeeeeeeeeeeeeeeeeeeeeeeeeeeeeee-ffmpeg-6.1.1-bin/bin --enable-avcodec --enable-avdevice --enable-avfilter --enable-avformat --enable-avutil --enable-postproc --enable-swresample --enable-swscale --libdir=/nix/store/eeeeeeeeeeeeeeeeeeeeeeeeeeeeeeee-ffmpeg-6.1.1-lib/lib --incdir=/nix/store/eeeeeeeeeeeeeeeeeeeeeeeeeeeeeeee-ffmpeg-6.1.1-dev/include --enable-doc --enable-htmlpages --enable-manpages --mandir=/nix/store/eeeeeeeeeeeeeeeeeeeeeeeeeeeeeeee-ffmpeg-6.1.1-man/share/man --enable-podpages --enable-txtpages --docdir=/nix/store/eeeeeeeeeeeeeeeeeeeeeeeeeeeeeeee-ffmpeg-6.1.1-doc/share/doc/ffmpeg --enable-alsa --disable-libaom --disable-appkit --disable-libaribcaption --enable-libass --disable-audiotoolbox --disable-avfoundation --disable-avisynth --disable-libbluray --disable-libbs2b --enable-bzlib --disable-libcaca --disable-libcelt --disable-chromaprint --disable-libcodec2 --disable-coreimage --disable-cuda --disable-cuda-llvm --enable-cuvid --enable-libdav1d --disable-libdc1394 --enable-libdrm --disable-libfdk-aac --enable-ffnvcodec --disable-libflite --enable-fontconfig --enable-libfontconfig --enable-libfreetype --disable-frei0r --disable-libfribidi --disable-libgme --enable-gnutls --disable-libgsm --enable-libharfbuzz --enable-iconv --disable-libjack --disable-libjxl --disable-ladspa --enable-lzma --disable-libmfx --disable-libmodplug --enable-libmp3lame --disable-libmysofa --enable-nvdec --enable-nvenc --disable-openal --disable-opencl --disable-libopencore-amrnb --disable-libopencore-amrwb --disable-opengl --disable-libopenh264 --disable-libopenjpeg --disable-libopenmpt --enable-libopus --disable-libplacebo --enable-libpulse --disable-librav1e --disable-librtmp --disable-libsmbclient --enable-sdl2 --disable-libshaderc --enable-libsoxr --enable-libspeex --enable-libsrt --enable-libssh --disable-librsvg --enable-libsvtav1 --disable-libtensorflow --enable-libtheora --enable-libv4l2 --enable-v4l2-m2m --enable-vaapi --enable-vdpau --disable-libvpl --disable-videotoolbox --disable-libvidstab --disable-libvmaf --disable-libvo-amrwbenc --enable-libvorbis --enable-libvpx --enable-vulkan --disable-libwebp --enable-libx264 --enable-libx265 --disable-libxavs --disable-libxcb --disable-libxcb-shape --disable-libxcb-shm --disable-libxcb-xfixes --disable-xlib --disable-libxml2 --enable-libxvid --enable-libzimg --enable-zlib --disable-libzmq --disable-debug --enable-optimizations --disable-extra-warnings --disable-stripping libavutil 58. 29.100 / 58. 29.100 libavcodec 60. 31.102 / 60. 31.102 libavformat 60. 16.100 / 60. 16.100 libavdevice 60. 3.100 / 60. 3.100 libavfilter 9. 12.100 / 9. 12.100 libswscale 7. 5.100 / 7. 5.100 libswresample 4. 12.100 / 4. 12.100 libpostproc 57. 3.100 / 57. 3.100 Input #0, mov,mp4,m4a,3gp,3g2,mj2, from '/tmp/video_subtitler/ff237ce3-26da-400f-8b49-c000fd4f3de8/videoplayback1.mp4': Metadata: major_brand : mp42 minor_version : 0 compatible_brands: isommp42 creation_time : 2025-01-20T03:56:32.000000Z encoder : Google Duration: 00:00:59.95, start: 0.000000, bitrate: 369 kb/s Stream #0:0[0x1](und): Video: h264 (Main) (avc1 / 0x31637661), yuv420p(tv, smpte170m/bt470bg/bt709, progressive), 360x640 [SAR 1:1 DAR 9:16], 237 kb/s, 30 fps, 30 tbr, 15360 tbn (default) Metadata: creation_time : 2025-01-20T03:56:32.000000Z handler_name : ISO Media file produced by Google Inc. Created on: 01/19/2025. vendor_id : [0][0][0][0] Stream #0:1[0x2](eng): Audio: aac (LC) (mp4a / 0x6134706D), 44100 Hz, stereo, fltp, 128 kb/s (default) Metadata: creation_time : 2025-01-20T03:56:32.000000Z handler_name : ISO Media file produced by Google Inc. Created on: 01/19/2025. vendor_id : [0][0][0][0] Error applying option 'fontsizes' to filter 'subtitles': Option not found [vost#0:0/libx264 @ 0xca0740] Error initializing a simple filtergraph Error opening output file /tmp/video_subtitler/ff237ce3-26da-400f-8b49-c000fd4f3de8/subtitled_videoplayback1.mp4. Error opening output files: Option not found